<?xml version="1.0" standalone="no"?>
<!DOCTYPE svg PUBLIC "-//W3C//DTD SVG 20010904//EN"
 "http://www.w3.org/TR/2001/REC-SVG-20010904/DTD/svg10.dtd">
<svg version="1.0" xmlns="http://www.w3.org/2000/svg"
 width="300.000000pt" height="89.000000pt" viewBox="0 0 300.000000 89.000000"
 preserveAspectRatio="xMidYMid meet">
<metadata>
Created by potrace 1.10, written by Peter Selinger 2001-2011
</metadata>
<g transform="translate(0.000000,89.000000) scale(0.100000,-0.100000)"
fill="#b0a50f" stroke="none">
<path d="M15 843 c-13 -12 -15 -72 -15 -395 0 -485 -11 -458 179 -422 47 9 91
20 97 25 15 12 5 120 -13 137 -10 11 -30 13 -74 9 l-59 -5 0 302 0 302 -27 26
c-36 32 -69 41 -88 21z m58 -15 c15 -12 17 -46 19 -333 l3 -319 45 3 c111 9
105 11 108 -38 2 -24 -1 -48 -5 -52 -5 -5 -55 -18 -112 -30 -86 -17 -105 -19
-112 -7 -10 15 -12 771 -2 781 10 11 38 8 56 -5z m187 -758 c0 -5 -5 -10 -11
-10 -5 0 -7 5 -4 10 3 6 8 10 11 10 2 0 4 -4 4 -10z m-37 -17 c-7 -2 -21 -2
-30 0 -10 3 -4 5 12 5 17 0 24 -2 18 -5z m-100 -20 c-7 -2 -21 -2 -30 0 -10 3
-4 5 12 5 17 0 24 -2 18 -5z"/>
<path d="M34 460 c0 -124 2 -174 3 -112 2 61 2 163 0 225 -1 61 -3 11 -3 -113z"/>
<path d="M221 164 c0 -11 3 -14 6 -6 3 7 2 16 -1 19 -3 4 -6 -2 -5 -13z"/>
<path d="M175 160 c-3 -5 -1 -10 4 -10 6 0 11 5 11 10 0 6 -2 10 -4 10 -3 0
-8 -4 -11 -10z"/>
<path d="M221 124 c0 -11 3 -14 6 -6 3 7 2 16 -1 19 -3 4 -6 -2 -5 -13z"/>
<path d="M302 818 c-7 -7 -12 -34 -12 -61 0 -42 4 -52 32 -78 34 -30 75 -38
96 -17 7 7 12 33 12 58 0 36 -6 52 -29 78 -32 34 -76 43 -99 20z m66 -14 c17
-12 22 -25 22 -60 0 -49 -13 -61 -55 -50 -23 6 -25 11 -25 60 0 70 13 82 58
50z m42 -114 c0 -5 -5 -10 -11 -10 -5 0 -7 5 -4 10 3 6 8 10 11 10 2 0 4 -4 4
-10z"/>
<path d="M2138 763 c-40 -10 -41 -96 -2 -130 78 -67 156 27 87 106 -26 29 -45
35 -85 24z m70 -51 c4 -44 -13 -64 -52 -60 -27 3 -31 7 -34 36 -4 44 13 64 52
60 27 -3 31 -7 34 -36z m12 -62 c-6 -11 -20 -20 -33 -19 l-22 0 21 9 c12 5 25
13 29 19 11 19 16 12 5 -9z"/>
<path d="M2140 710 c0 -5 5 -10 11 -10 5 0 7 5 4 10 -3 6 -8 10 -11 10 -2 0
-4 -4 -4 -10z"/>
<path d="M2785 636 c-74 -36 -111 -99 -125 -213 -11 -88 -7 -151 18 -238 30
-109 135 -185 235 -172 57 8 67 21 67 88 0 44 -4 59 -14 59 -8 0 -17 7 -20 15
-5 14 -9 14 -35 0 -69 -35 -111 -13 -125 68 l-7 38 48 -6 c26 -4 73 -7 103 -8
l55 -2 3 98 c3 107 -7 157 -40 207 -46 67 -108 92 -163 66z m116 -37 c38 -41
52 -95 53 -204 l1 -90 -40 1 c-22 0 -69 2 -105 4 l-65 4 3 -35 c5 -55 22 -98
45 -114 24 -17 83 -20 120 -6 22 9 26 7 32 -16 10 -42 -4 -82 -31 -89 -43 -11
-120 2 -152 25 -51 36 -84 117 -90 220 -8 147 31 289 75 275 15 -5 15 -4 3 5
-8 5 -12 12 -10 14 31 25 61 37 93 37 31 0 45 -7 68 -31z m76 -261 c-2 -18 -4
-4 -4 32 0 36 2 50 4 33 2 -18 2 -48 0 -65z m-192 -48 c-3 -5 -10 -10 -16 -10
-5 0 -9 5 -9 10 0 6 7 10 16 10 8 0 12 -4 9 -10z m161 -246 c-11 -8 -27 -14
-35 -13 -11 0 -9 3 5 9 12 5 25 14 29 20 4 6 10 8 13 5 4 -4 -2 -13 -12 -21z"/>
<path d="M2781 521 c-20 -20 -25 -34 -34 -93 -3 -22 0 -27 26 -32 16 -3 49 -6
73 -6 l44 0 0 39 c0 46 -36 105 -67 109 -12 2 -31 -6 -42 -17z m27 -15 c-10
-7 -22 -24 -27 -37 -7 -18 -10 -19 -10 -6 -1 25 21 57 39 57 12 -1 12 -3 -2
-14z m56 -22 c3 -9 6 -28 6 -44 0 -25 -4 -28 -40 -32 -33 -3 -40 -1 -40 15 0
53 58 102 74 61z"/>
<path d="M2711 504 c0 -11 3 -14 6 -6 3 7 2 16 -1 19 -3 4 -6 -2 -5 -13z"/>
<path d="M2758 373 c7 -3 16 -2 19 1 4 3 -2 6 -13 5 -11 0 -14 -3 -6 -6z"/>
<path d="M2691 254 c0 -11 3 -14 6 -6 3 7 2 16 -1 19 -3 4 -6 -2 -5 -13z"/>
<path d="M2730 210 c0 -5 5 -10 11 -10 5 0 7 5 4 10 -3 6 -8 10 -11 10 -2 0
-4 -4 -4 -10z"/>
<path d="M2711 164 c0 -11 3 -14 6 -6 3 7 2 16 -1 19 -3 4 -6 -2 -5 -13z"/>
<path d="M307 613 c-4 -3 -7 -122 -7 -263 0 -236 1 -258 18 -273 19 -17 57
-22 86 -11 14 5 16 38 16 258 0 251 0 253 -23 274 -22 21 -76 30 -90 15z m66
-16 c16 -11 17 -35 15 -255 -2 -133 1 -242 5 -242 5 0 5 -5 1 -12 -6 -9 -9 -9
-12 0 -2 7 -19 12 -38 12 l-34 0 0 249 c0 252 1 258 36 260 5 1 18 -5 27 -12z"/>
<path d="M355 580 c3 -5 8 -10 11 -10 2 0 4 5 4 10 0 6 -5 10 -11 10 -5 0 -7
-4 -4 -10z"/>
<path d="M2427 594 c-35 -24 -40 -24 -51 -9 -8 11 -23 16 -46 13 l-35 -3 -3
-225 -2 -226 30 -23 c21 -15 42 -21 63 -19 l32 3 3 156 2 156 29 27 c16 16 34
25 40 22 7 -5 11 -65 11 -174 0 -166 0 -167 26 -195 21 -23 33 -28 62 -25 l37
3 2 192 c1 110 -3 208 -9 230 -6 22 -28 56 -53 80 -51 51 -83 55 -138 17z
m121 -17 c36 -38 42 -80 42 -280 l0 -188 -32 3 -33 3 -6 170 c-5 178 -9 199
-40 216 -23 12 -49 0 -78 -37 -19 -24 -21 -40 -21 -176 l0 -149 -32 3 -33 3 0
220 0 220 25 0 c21 0 26 -5 28 -32 l3 -33 38 40 c32 34 44 40 78 40 29 0 46
-6 61 -23z m-94 -102 c-10 -8 -23 -14 -29 -14 -5 0 -1 6 9 14 11 8 24 15 30
15 5 0 1 -7 -10 -15z m-57 -97 c-3 -8 -6 -5 -6 6 -1 11 2 17 5 13 3 -3 4 -12
1 -19z m0 -55 c-3 -10 -5 -4 -5 12 0 17 2 24 5 18 2 -7 2 -21 0 -30z m0 -75
c-3 -7 -5 -2 -5 12 0 14 2 19 5 13 2 -7 2 -19 0 -25z m210 -110 c-3 -8 -6 -5
-6 6 -1 11 2 17 5 13 3 -3 4 -12 1 -19z"/>
<path d="M2435 570 c-3 -6 1 -7 9 -4 18 7 21 14 7 14 -6 0 -13 -4 -16 -10z"/>
<path d="M2561 494 c0 -11 3 -14 6 -6 3 7 2 16 -1 19 -3 4 -6 -2 -5 -13z"/>
<path d="M2320 170 c0 -5 5 -10 11 -10 5 0 7 5 4 10 -3 6 -8 10 -11 10 -2 0
-4 -4 -4 -10z"/>
<path d="M477 603 c-4 -3 -7 -112 -7 -242 l0 -236 25 -24 c19 -18 31 -22 52
-16 52 13 53 17 53 180 0 148 1 153 25 179 14 15 30 24 35 21 6 -4 10 -68 10
-158 0 -147 1 -153 24 -174 26 -25 75 -30 94 -11 8 8 12 56 12 149 0 123 2
139 21 163 23 29 44 34 53 10 3 -9 6 -74 6 -145 0 -116 2 -131 20 -149 23 -23
68 -26 94 -7 16 12 18 28 15 173 -4 143 -6 163 -26 194 -32 53 -66 80 -105 86
-38 7 -95 -16 -105 -42 -5 -13 -10 -11 -32 9 -54 51 -110 59 -151 22 -15 -14
-19 -13 -35 5 -17 19 -64 27 -78 13z m65 -30 c0 -10 1 -26 0 -35 -2 -25 6 -22
35 13 15 17 32 28 40 25 8 -3 11 -1 8 4 -4 6 9 10 31 10 29 0 43 -7 68 -34
l32 -33 34 28 c60 51 131 34 164 -39 14 -30 16 -64 14 -187 l-3 -150 -37 -3
-38 -3 0 143 c0 114 -3 148 -16 166 -22 32 -58 28 -88 -11 -24 -31 -26 -41
-28 -173 l-3 -139 -32 -3 -33 -3 0 141 c0 163 -12 210 -54 210 -15 0 -36 -12
-51 -27 -25 -27 -25 -30 -25 -185 l0 -158 -25 -6 c-55 -14 -55 -14 -55 236 l0
230 30 0 c21 0 30 -5 32 -17z m67 -112 c-23 -18 -24 -25 -29 -182 -4 -133 -8
-163 -20 -167 -12 -4 -13 -2 -2 9 8 9 12 57 12 165 0 148 0 152 26 179 14 15
28 25 31 21 3 -3 -5 -14 -18 -25z m214 7 c-12 -6 -27 -22 -32 -37 -7 -20 -10
-22 -10 -7 -1 24 27 56 48 55 11 0 9 -4 -6 -11z m164 -145 c-2 -21 -4 -6 -4
32 0 39 2 55 4 38 2 -18 2 -50 0 -70z m-1 -159 c-3 -8 -13 -14 -23 -14 -17 1
-17 1 0 11 11 7 18 24 19 52 l1 42 4 -39 c3 -21 2 -44 -1 -52z m-213 -25 c-6
-6 -19 -9 -29 -6 -16 4 -15 5 4 6 12 0 22 6 22 13 0 6 3 8 7 5 4 -4 2 -12 -4
-18z"/>
<path d="M515 540 c3 -5 8 -10 11 -10 2 0 4 5 4 10 0 6 -5 10 -11 10 -5 0 -7
-4 -4 -10z"/>
<path d="M913 355 c0 -44 2 -61 4 -37 2 23 2 59 0 80 -2 20 -4 1 -4 -43z"/>
<path d="M700 170 c0 -5 5 -10 10 -10 6 0 10 5 10 10 0 6 -4 10 -10 10 -5 0
-10 -4 -10 -10z"/>
<path d="M1150 579 c-48 -19 -94 -77 -106 -132 -13 -55 -5 -157 15 -195 73
-144 261 -150 332 -11 16 32 20 57 18 117 -2 90 -11 114 -58 164 -58 63 -133
84 -201 57z m139 -27 c69 -34 97 -113 80 -221 -15 -95 -78 -151 -171 -151
-105 0 -161 91 -144 233 8 65 42 128 58 106 8 -11 9 -11 5 3 -14 43 105 65
172 30z m96 -271 c-3 -16 -21 -46 -39 -65 -31 -35 -91 -65 -103 -52 -3 3 8 9
26 12 38 8 97 72 106 116 4 16 9 27 12 24 3 -2 2 -18 -2 -35z"/>
<path d="M1190 500 c-76 -18 -81 -227 -6 -246 73 -18 111 27 110 128 0 56 -4
72 -23 92 -26 28 -46 35 -81 26z m15 -20 c-25 -10 -41 -28 -48 -55 -4 -18 -5
-18 -6 3 -1 26 32 62 57 61 14 0 14 -2 -3 -9z m65 -29 c14 -27 12 -121 -3
-151 -16 -32 -60 -48 -81 -30 -12 9 -16 31 -16 82 0 60 3 72 25 93 29 30 60
32 75 6z"/>
<path d="M1090 246 c0 -2 8 -10 18 -17 15 -13 16 -12 3 4 -13 16 -21 21 -21
13z"/>
<path d="M1872 570 c-42 -26 -66 -81 -57 -129 7 -39 67 -104 123 -133 29 -15
31 -20 22 -38 -14 -26 -55 -26 -98 0 -41 25 -52 19 -52 -26 0 -88 149 -144
235 -88 29 19 45 56 45 105 0 68 -36 117 -117 158 -29 15 -41 26 -37 36 10 24
49 28 89 9 31 -15 38 -15 46 -3 17 28 9 61 -25 95 -30 30 -40 34 -87 34 -37 0
-65 -7 -87 -20z m125 -1 c32 -12 43 -26 43 -56 0 -27 2 -27 -44 -8 -31 13 -41
14 -64 3 -54 -26 -39 -64 39 -104 26 -13 55 -34 63 -46 18 -26 21 -109 6 -139
-25 -46 -113 -63 -176 -33 -29 14 -34 21 -34 51 l0 35 26 -17 c34 -22 90 -24
110 -3 27 27 10 61 -45 92 -28 15 -59 38 -71 53 -42 54 -15 145 50 169 44 16
62 17 97 3z m-52 -81 c-11 -6 -23 -16 -27 -22 -5 -7 -8 -8 -8 0 0 15 22 34 40
34 11 -1 10 -4 -5 -12z m115 -278 c-13 -24 -67 -60 -90 -60 -8 0 4 9 28 20 27
12 46 29 52 46 6 15 13 24 16 21 3 -3 0 -15 -6 -27z"/>
<path d="M2123 583 c-10 -3 -13 -55 -13 -212 l0 -207 30 -23 c21 -15 42 -21
63 -19 l32 3 3 212 c2 190 1 214 -15 233 -17 19 -69 26 -100 13z m77 -214 l0
-210 -32 3 -33 3 -3 195 c-1 107 0 200 2 207 3 7 19 13 36 13 l30 0 0 -211z"/>
<path d="M2146 285 c8 -37 14 -45 14 -19 0 10 -5 26 -10 34 -8 11 -9 7 -4 -15z"/>
<path d="M2140 230 c0 -5 5 -10 11 -10 5 0 7 5 4 10 -3 6 -8 10 -11 10 -2 0
-4 -4 -4 -10z"/>
<path d="M1452 571 c-10 -6 -13 -44 -10 -170 l3 -162 47 -45 c53 -50 93 -57
154 -28 33 16 36 16 47 0 9 -12 24 -17 47 -14 l35 3 3 188 c2 184 2 189 -20
213 -22 23 -60 30 -92 18 -13 -5 -16 -27 -16 -134 0 -127 0 -129 -26 -149 -51
-40 -54 -33 -54 110 0 122 -2 133 -22 155 -23 24 -70 32 -96 15z m78 -139 c0
-99 3 -132 16 -150 21 -31 60 -28 95 7 29 29 29 30 29 150 l0 121 35 0 35 0 0
-186 0 -185 -32 3 c-27 2 -33 7 -32 26 1 28 0 28 -42 -4 -69 -53 -151 -26
-174 55 -5 20 -10 93 -10 164 l0 127 40 0 40 0 0 -128z m223 -253 c-5 -5 -6
74 -3 174 l5 182 3 -174 c1 -96 -1 -178 -5 -182z m-112 11 c-13 -11 -28 -20
-35 -20 -6 0 3 9 19 20 38 25 47 25 16 0z"/>
<path d="M1460 540 c0 -5 5 -10 10 -10 6 0 10 5 10 10 0 6 -4 10 -10 10 -5 0
-10 -4 -10 -10z"/>
<path d="M1473 350 c0 -41 2 -58 4 -37 2 20 2 54 0 75 -2 20 -4 3 -4 -38z"/>
<path d="M1490 236 c0 -2 8 -10 18 -17 15 -13 16 -12 3 4 -13 16 -21 21 -21
13z"/>
</g>
</svg>
